<!-- Copyright 2000-2022 JetBrains s.r.o. and contributors. Use of this source code is governed by the Apache 2.0 license. -->
<svg width="16" height="16" viewBox="0 0 16 16" fill="none" xmlns="http://www.w3.org/2000/svg">
<path fill-rule="evenodd" clip-rule="evenodd" d="M6.40652 1.13693C6.93491 1.04481 7.47033 0.999003 8.00669 1.00002L8.01051 1.00004C8.57815 1.00472 9.14451 1.05468 9.70418 1.14945C10.2421 1.20981 10.7429 1.45457 11.1211 1.84248C11.4975 2.2285 11.7816 2.79518 11.7816 3.34402V6.29583C11.7817 6.86983 11.5575 7.42135 11.1568 7.83234C10.756 8.24337 10.2105 8.48148 9.63656 8.49583L9.62156 8.49601H6.51464C6.16363 8.50255 5.82833 8.64301 5.57744 8.88874C5.32791 9.13314 5.18075 9.46319 5.16556 9.81189V11.312C5.16556 11.6434 4.89693 11.912 4.56556 11.912H3.47756C2.85908 11.912 2.34586 11.6751 1.962 11.2758C1.59454 10.8936 1.36918 10.3888 1.24106 9.86411C0.920936 8.72275 0.919653 7.51558 1.23721 6.3737C1.35378 5.78903 1.6721 5.26354 2.13698 4.88936C2.60668 4.51131 3.1953 4.31244 3.79783 4.32801H4.35756V3.32802C4.35756 2.85353 4.41651 2.32507 4.78625 1.89425C5.14789 1.47288 5.70727 1.26058 6.40508 1.13718L6.40652 1.13693ZM8.00252 2.20001C7.53688 2.19924 7.07206 2.23905 6.61333 2.31897C5.99969 2.42757 5.7832 2.57519 5.69687 2.67578C5.61861 2.76696 5.55756 2.9225 5.55756 3.32802C5.55756 3.72802 5.55756 4.12801 5.55756 4.52801C5.55756 5.0803 5.10985 5.52801 4.55756 5.52801H3.78956C3.78365 5.52801 3.77773 5.52793 3.77182 5.52775C3.45176 5.51829 3.13884 5.6234 2.88939 5.82417C2.60721 6.0513 2.49376 6.33942 2.39898 6.67506C2.13367 7.61466 2.13367 8.60937 2.39898 9.54897C2.48968 9.87018 2.58968 10.1972 2.82712 10.4442C2.98926 10.6129 3.19204 10.712 3.47756 10.712H3.96556V9.80001C3.96556 9.79275 3.96569 9.78549 3.96596 9.77822C3.98993 9.11858 4.26621 8.49331 4.73778 8.03143C5.20936 7.56956 5.84024 7.30634 6.50024 7.29609L6.50956 7.29594L9.61319 7.29601C9.87162 7.28784 10.1169 7.17987 10.2976 6.99462C10.4797 6.80778 10.5816 6.55714 10.5816 6.2962V3.36968C10.5567 3.11035 10.444 2.86703 10.2619 2.6802C10.0544 2.46743 9.80468 2.38408 9.52035 2.33542C9.01886 2.24959 8.51128 2.20431 8.00252 2.20001Z" fill="#6C707E"/>
<path fill-rule="evenodd" clip-rule="evenodd" d="M10.5816 4.57583C10.5816 4.24446 10.8503 3.97583 11.1816 3.97583H12.3896C13.0238 3.97583 13.5197 4.23374 13.8761 4.64923C14.2072 5.03528 14.3976 5.53226 14.5193 6.01284C14.8787 7.16669 14.877 8.40299 14.5139 9.55601L14.5127 9.5599C14.3558 10.0467 14.165 10.5488 13.8457 10.9263C13.4915 11.3451 13.0116 11.5758 12.3896 11.5758H11.4296V12.5758C11.4296 13.2374 11.1316 13.7399 10.72 14.0925C10.3293 14.4271 9.83982 14.6271 9.40119 14.7509C8.27404 15.1058 7.06483 15.1049 5.93807 14.7483C5.06882 14.4779 3.96564 13.8511 3.96564 12.5758V11.2558C3.96564 10.9245 4.23427 10.6558 4.56564 10.6558C4.89701 10.6558 5.16564 10.9245 5.16564 11.2558V12.5758C5.16564 12.9958 5.51714 13.361 6.29565 13.6028L6.29885 13.6038C7.19346 13.8873 8.15381 13.8873 9.04843 13.6038C9.36347 13.504 9.68356 13.4002 9.93929 13.1812C10.1277 13.0198 10.2296 12.8342 10.2296 12.5758C10.2296 12.3171 10.2296 11.8275 10.2296 11.3758C10.2296 10.8235 10.6774 10.3758 11.2296 10.3758H12.3896C12.6717 10.3758 12.8117 10.2906 12.9295 10.1513C13.082 9.97108 13.2151 9.67382 13.3699 9.19378C13.6603 8.27013 13.6601 7.27957 13.3693 6.35601C13.2676 6.03285 13.1921 5.695 12.9652 5.43043C12.8275 5.26992 12.6595 5.17583 12.3896 5.17583H11.1816C10.8503 5.17583 10.5816 4.9072 10.5816 4.57583Z" fill="#6C707E"/>
<path d="M7.55051 3.60007C7.70121 3.59819 7.84907 3.64116 7.9753 3.72351C8.10152 3.80587 8.20041 3.9239 8.25939 4.06259C8.31837 4.20129 8.33479 4.35439 8.30654 4.50243C8.2783 4.65048 8.20668 4.78678 8.10078 4.89402C7.99488 5.00126 7.85948 5.0746 7.7118 5.1047C7.56412 5.1348 7.41083 5.12032 7.2714 5.06308C7.13198 5.00585 7.01272 4.90846 6.92878 4.78328C6.84484 4.6581 6.80002 4.51079 6.80001 4.36007C6.79875 4.26072 6.81723 4.16211 6.85438 4.06995C6.89154 3.9778 6.94662 3.89394 7.01644 3.82324C7.08625 3.75254 7.16941 3.69641 7.26109 3.6581C7.35277 3.61979 7.45114 3.60007 7.55051 3.60007Z" fill="#6C707E"/>
<path d="M8.21741 11.0602C8.41897 11.0602 8.61228 11.1402 8.75481 11.2828C8.89734 11.4253 8.97741 11.6186 8.97741 11.8202C8.97741 12.0217 8.89734 12.215 8.75481 12.3576C8.61228 12.5001 8.41897 12.5802 8.21741 12.5802C8.01584 12.5802 7.82253 12.5001 7.68001 12.3576C7.53748 12.215 7.45741 12.0217 7.45741 11.8202C7.45741 11.6186 7.53748 11.4253 7.68001 11.2828C7.82253 11.1402 8.01584 11.0602 8.21741 11.0602Z" fill="#6C707E"/>
</svg>
